<svg xmlns="http://www.w3.org/2000/svg" viewBox="0 0 64 64" role="img" aria-label="Apple TV+">
  <rect width="64" height="64" rx="12" fill="#000000"/>
  <g transform="translate(32,22)" fill="#ffffff">
    <path d="M2.5 -7.8c1.6 0 3.4-1 4.4-2.4 0.9-1.2 1.5-2.9 1.3-4.6-1.5 0.1-3.4 0.9-4.4 2.2-0.9 1.1-1.7 2.8-1.4 4.5 0.1 0.2 0.1 0.3 0.1 0.3zM6.6 -6.5c-2.4-0.1-4.4 1.3-5.5 1.3-1.2 0-2.9-1.3-4.8-1.2-2.4 0-4.7 1.4-5.9 3.6-2.5 4.4-0.7 10.9 1.8 14.5 1.2 1.7 2.6 3.6 4.5 3.6 1.8-0.1 2.5-1.2 4.7-1.2 2.2 0 2.8 1.2 4.7 1.1 1.9 0 3.2-1.7 4.4-3.4 1.4-2 2-3.9 2-4-0.1 0-3.9-1.5-3.9-5.9 0-3.7 3-5.5 3.2-5.6-1.7-2.5-4.5-2.8-5.2-2.8z"/>
  </g>
  <text x="50%" y="78%" text-anchor="middle" dominant-baseline="central"
        font-family="Helvetica, Arial, sans-serif" font-size="11" font-weight="700"
        fill="#ffffff" letter-spacing="2">TV+</text>
</svg>
